{
  "accessors": [
    {
      "bufferView": 2,
      "componentType": 5126,
      "count": 65532,
      "max": [2.202733278274536, -14.148521423339844, 17.521162033081055],
      "min": [-0.154151052236557, -16.85667610168457, 16.620084762573242],
      "type": "VEC3"
    },
    {
      "bufferView": 2,
      "byteOffset": 786384,
      "componentType": 5126,
      "count": 65532,
      "max": [0.998918354511261, 0.9993308186531067, 0.999893844127655],
      "min": [-0.999950647354126, -0.9976052045822144, -0.9999994039535522],
      "type": "VEC3"
    },
    {
      "bufferView": 1,
      "componentType": 5126,
      "count": 65532,
      "max": [0.9553439617156982, 0.9677733182907104],
      "min": [0.004860837012529373, 0.0013833834091201425],
      "type": "VEC2"
    },
    {
      "bufferView": 0,
      "componentType": 5125,
      "count": 317961,
      "type": "SCALAR"
    },
    {
      "bufferView": 2,
      "byteOffset": 1572768,
      "componentType": 5126,
      "count": 65532,
      "max": [2.2767114639282227, -14.134018898010254, 18.040754318237305],
      "min": [0.4806545674800873, -16.36234474182129, 16.63549041748047],
      "type": "VEC3"
    },
    {
      "bufferView": 2,
      "byteOffset": 2359152,
      "componentType": 5126,
      "count": 65532,
      "max": [0.9999791979789734, 0.9999933838844299, 0.9999276399612427],
      "min": [-0.9992908239364624, -0.9983246326446533, -0.9999915361404419],
      "type": "VEC3"
    },
    {
      "bufferView": 1,
      "byteOffset": 524256,
      "componentType": 5126,
      "count": 65532,
      "max": [0.9977792501449585, 0.9794920682907104],
      "min": [0.0010478482581675053, 0.0012092782417312264],
      "type": "VEC2"
    },
    {
      "bufferView": 0,
      "byteOffset": 1271844,
      "componentType": 5125,
      "count": 300354,
      "type": "SCALAR"
    },
    {
      "bufferView": 2,
      "byteOffset": 3145536,
      "componentType": 5126,
      "count": 65532,
      "max": [2.2780954837799072, -14.221776008605957, 18.040754318237305],
      "min": [-0.1088123768568039, -16.619747161865234, 16.626174926757813],
      "type": "VEC3"
    },
    {
      "bufferView": 2,
      "byteOffset": 3931920,
      "componentType": 5126,
      "count": 65532,
      "max": [0.9998733997344971, 0.9998417496681213, 0.9999924898147583],
      "min": [-0.999939501285553, -0.9998697638511658, -0.9999560713768005],
      "type": "VEC3"
    },
    {
      "bufferView": 1,
      "byteOffset": 1048512,
      "componentType": 5126,
      "count": 65532,
      "max": [0.9988783001899719, 0.9873045682907104],
      "min": [0.0009765625, 0.0010102583328261971],
      "type": "VEC2"
    },
    {
      "bufferView": 0,
      "byteOffset": 2473260,
      "componentType": 5125,
      "count": 280914,
      "type": "SCALAR"
    },
    {
      "bufferView": 2,
      "byteOffset": 4718304,
      "componentType": 5126,
      "count": 65532,
      "max": [2.0328471660614014, -14.143692016601563, 18.04022789001465],
      "min": [0.5911328792572021, -16.684654235839844, 16.652803421020508],
      "type": "VEC3"
    },
    {
      "bufferView": 2,
      "byteOffset": 5504688,
      "componentType": 5126,
      "count": 65532,
      "max": [0.9999774098396301, 0.9999703764915466, 0.9997531175613403],
      "min": [-0.9998839497566223, -0.9999674558639526, -0.9982241988182068],
      "type": "VEC3"
    },
    {
      "bufferView": 1,
      "byteOffset": 1572768,
      "componentType": 5126,
      "count": 65532,
      "max": [0.9984913468360901, 0.9873045682907104],
      "min": [0.0009765625, 0.00208767200820148],
      "type": "VEC2"
    },
    {
      "bufferView": 0,
      "byteOffset": 3596916,
      "componentType": 5125,
      "count": 257091,
      "type": "SCALAR"
    },
    {
      "bufferView": 2,
      "byteOffset": 6291072,
      "componentType": 5126,
      "count": 65532,
      "max": [1.511829137802124, -14.271940231323242, 18.124126434326172],
      "min": [0.04285783693194389, -16.773632049560547, 16.62090301513672],
      "type": "VEC3"
    },
    {
      "bufferView": 2,
      "byteOffset": 7077456,
      "componentType": 5126,
      "count": 65532,
      "max": [0.9999306201934814, 0.9999080300331116, 0.9999407529830933],
      "min": [-0.9998262524604797, -0.9999945759773254, -0.9999998807907104],
      "type": "VEC3"
    },
    {
      "bufferView": 1,
      "byteOffset": 2097024,
      "componentType": 5126,
      "count": 65532,
      "max": [0.9983010292053223, 0.9794920682907104],
      "min": [0.0009765625, 0.0010385109344497323],
      "type": "VEC2"
    },
    {
      "bufferView": 0,
      "byteOffset": 4625280,
      "componentType": 5125,
      "count": 253068,
      "type": "SCALAR"
    },
    {
      "bufferView": 2,
      "byteOffset": 7863840,
      "componentType": 5126,
      "count": 65532,
      "max": [0.7239708304405212, -15.214985847473145, 17.997709274291992],
      "min": [-0.09880361706018448, -16.857215881347656, 16.953609466552734],
      "type": "VEC3"
    },
    {
      "bufferView": 2,
      "byteOffset": 8650224,
      "componentType": 5126,
      "count": 65532,
      "max": [0.999879777431488, 0.9998631477355957, 0.9999879598617554],
      "min": [-0.9999948143959045, -0.9999837875366211, -0.9932700395584106],
      "type": "VEC3"
    },
    {
      "bufferView": 1,
      "byteOffset": 2621280,
      "componentType": 5126,
      "count": 65532,
      "max": [0.9970256090164185, 0.9873045682907104],
      "min": [0.0009765625, 0.001194555894471705],
      "type": "VEC2"
    },
    {
      "bufferView": 0,
      "byteOffset": 5637552,
      "componentType": 5125,
      "count": 315546,
      "type": "SCALAR"
    },
    {
      "bufferView": 2,
      "byteOffset": 9436608,
      "componentType": 5126,
      "count": 65532,
      "max": [1.0275720357894897, -15.14628791809082, 18.06814956665039],
      "min": [-0.10490260273218155, -16.856792449951172, 16.84971046447754],
      "type": "VEC3"
    },
    {
      "bufferView": 2,
      "byteOffset": 10222992,
      "componentType": 5126,
      "count": 65532,
      "max": [0.9998639225959778, 0.9998350143432617, 0.9999692440032959],
      "min": [-0.9999873638153076, -0.9999819993972778, -0.9999968409538269],
      "type": "VEC3"
    },
    {
      "bufferView": 1,
      "byteOffset": 3145536,
      "componentType": 5126,
      "count": 65532,
      "max": [0.9982975721359253, 0.9873045682907104],
      "min": [0.0009765625, 0.0010466767707839608],
      "type": "VEC2"
    },
    {
      "bufferView": 0,
      "byteOffset": 6899736,
      "componentType": 5125,
      "count": 287586,
      "type": "SCALAR"
    },
    {
      "bufferView": 2,
      "byteOffset": 11009376,
      "componentType": 5126,
      "count": 65532,
      "max": [0.8889257907867432, -15.1278715133667, 18.003904342651367],
      "min": [-0.16943232715129852, -16.853696823120117, 16.683744430541992],
      "type": "VEC3"
    },
    {
      "bufferView": 2,
      "byteOffset": 11795760,
      "componentType": 5126,
      "count": 65532,
      "max": [0.9998882412910461, 0.9991191029548645, 0.9999785423278809],
      "min": [-0.9999948143959045, -0.9999499917030334, -0.9999826550483704],
      "type": "VEC3"
    },
    {
      "bufferView": 1,
      "byteOffset": 3669792,
      "componentType": 5126,
      "count": 65532,
      "max": [0.9984291195869446, 0.9873045682907104],
      "min": [0.0009765625, 0.0013362361351028085],
      "type": "VEC2"
    },
    {
      "bufferView": 0,
      "byteOffset": 8050080,
      "componentType": 5125,
      "count": 276624,
      "type": "SCALAR"
    },
    {
      "bufferView": 2,
      "byteOffset": 12582144,
      "componentType": 5126,
      "count": 65532,
      "max": [2.1621851921081543, -14.122114181518555, 17.973228454589844],
      "min": [-0.16943232715129852, -16.8198299407959, 16.640438079833984],
      "type": "VEC3"
    },
    {
      "bufferView": 2,
      "byteOffset": 13368528,
      "componentType": 5126,
      "count": 65532,
      "max": [0.9994817972183228, 0.9999227523803711, 0.9999855756759644],
      "min": [-0.9999759793281555, -0.999226987361908, -0.9999998807907104],
      "type": "VEC3"
    },
    {
      "bufferView": 1,
      "byteOffset": 4194048,
      "componentType": 5126,
      "count": 65532,
      "max": [0.9984772801399231, 0.9873045682907104],
      "min": [0.0009765625, 0.0012788368621841073],
      "type": "VEC2"
    },
    {
      "bufferView": 0,
      "byteOffset": 9156576,
      "componentType": 5125,
      "count": 257634,
      "type": "SCALAR"
    },
    {
      "bufferView": 2,
      "byteOffset": 14154912,
      "componentType": 5126,
      "count": 65533,
      "max": [2.2887866497039795, -14.121865272521973, 17.97500228881836],
      "min": [0.7438718676567078, -16.028732299804688, 16.63026237487793],
      "type": "VEC3"
    },
    {
      "bufferView": 2,
      "byteOffset": 14941308,
      "componentType": 5126,
      "count": 65533,
      "max": [0.9999905228614807, 0.9999983310699463, 0.9998833537101746],
      "min": [-0.9989281892776489, -0.9917160868644714, -0.9999908208847046],
      "type": "VEC3"
    },
    {
      "bufferView": 1,
      "byteOffset": 4718304,
      "componentType": 5126,
      "count": 65533,
      "max": [0.9986836314201355, 0.9873045682907104],
      "min": [0.0009765625, 0.0010178877273574471],
      "type": "VEC2"
    },
    {
      "bufferView": 0,
      "byteOffset": 10187112,
      "componentType": 5125,
      "count": 278670,
      "type": "SCALAR"
    },
    {
      "bufferView": 2,
      "byteOffset": 15727704,
      "componentType": 5126,
      "count": 65532,
      "max": [2.2887866497039795, -14.122377395629883, 18.075098037719727],
      "min": [-0.03610144555568695, -16.85150718688965, 16.627588272094727],
      "type": "VEC3"
    },
    {
      "bufferView": 2,
      "byteOffset": 16514088,
      "componentType": 5126,
      "count": 65532,
      "max": [0.9998865127563477, 0.9998681545257568, 0.9998833537101746],
      "min": [-0.9986528754234314, -0.9999699592590332, -0.9999994039535522],
      "type": "VEC3"
    },
    {
      "bufferView": 1,
      "byteOffset": 5242568,
      "componentType": 5126,
      "count": 65532,
      "max": [0.9989317655563354, 0.9873045682907104],
      "min": [0.0009765625, 0.0011692835250869393],
      "type": "VEC2"
    },
    {
      "bufferView": 0,
      "byteOffset": 11301792,
      "componentType": 5125,
      "count": 191880,
      "type": "SCALAR"
    },
    {
      "bufferView": 2,
      "byteOffset": 17300472,
      "componentType": 5126,
      "count": 65532,
      "max": [1.235506296157837, -14.418883323669434, 18.06498146057129],
      "min": [0.07229644805192947, -16.852415084838867, 16.620084762573242],
      "type": "VEC3"
    },
    {
      "bufferView": 2,
      "byteOffset": 18086856,
      "componentType": 5126,
      "count": 65532,
      "max": [0.9996724724769592, 0.9998571276664734, 0.9999428987503052],
      "min": [-0.9997661113739014, -0.9999774098396301, -0.9999998807907104],
      "type": "VEC3"
    },
    {
      "bufferView": 1,
      "byteOffset": 5766824,
      "componentType": 5126,
      "count": 65532,
      "max": [0.9988716840744019, 0.9873045682907104],
      "min": [0.0009765625, 0.0011496139923110604],
      "type": "VEC2"
    },
    {
      "bufferView": 0,
      "byteOffset": 12069312,
      "componentType": 5125,
      "count": 254574,
      "type": "SCALAR"
    },
    {
      "bufferView": 2,
      "byteOffset": 18873240,
      "componentType": 5126,
      "count": 65533,
      "max": [1.214982032775879, -14.408077239990234, 18.001272201538086],
      "min": [0.29769429564476013, -16.846296310424805, 16.627891540527344],
      "type": "VEC3"
    },
    {
      "bufferView": 2,
      "byteOffset": 19659636,
      "componentType": 5126,
      "count": 65533,
      "max": [0.9999663233757019, 0.9999775886535645, 0.999873161315918],
      "min": [-0.9998714327812195, -0.999813437461853, -0.9999861717224121],
      "type": "VEC3"
    },
    {
      "bufferView": 1,
      "byteOffset": 6291080,
      "componentType": 5126,
      "count": 65533,
      "max": [0.998953640460968, 0.9873045682907104],
      "min": [0.0009765625, 0.0011269046226516366],
      "type": "VEC2"
    },
    {
      "bufferView": 0,
      "byteOffset": 13087608,
      "componentType": 5125,
      "count": 232965,
      "type": "SCALAR"
    },
    {
      "bufferView": 2,
      "byteOffset": 20446032,
      "componentType": 5126,
      "count": 65532,
      "max": [1.3577473163604736, -14.353297233581543, 18.12508201599121],
      "min": [0.42224738001823425, -16.776958465576172, 16.6235408782959],
      "type": "VEC3"
    },
    {
      "bufferView": 2,
      "byteOffset": 21232416,
      "componentType": 5126,
      "count": 65532,
      "max": [0.9998872876167297, 0.9999234676361084, 0.9999769330024719],
      "min": [-0.9999476075172424, -0.9997939467430115, -0.9999826550483704],
      "type": "VEC3"
    },
    {
      "bufferView": 1,
      "byteOffset": 6815344,
      "componentType": 5126,
      "count": 65532,
      "max": [0.998262345790863, 0.9794920682907104],
      "min": [0.0009765625, 0.0011657668510451913],
      "type": "VEC2"
    },
    {
      "bufferView": 0,
      "byteOffset": 14019468,
      "componentType": 5125,
      "count": 219873,
      "type": "SCALAR"
    },
    {
      "bufferView": 2,
      "byteOffset": 22018800,
      "componentType": 5126,
      "count": 37472,
      "max": [1.556126594543457, -14.323385238647461, 18.12508201599121],
      "min": [0.6649751663208008, -16.588409423828125, 16.626876831054688],
      "type": "VEC3"
    },
    {
      "bufferView": 2,
      "byteOffset": 22468464,
      "componentType": 5126,
      "count": 37472,
      "max": [0.9998851418495178, 0.9990856051445007, 0.999983549118042],
      "min": [-0.9996627569198608, -0.9992407560348511, -0.9999864101409912],
      "type": "VEC3"
    },
    {
      "bufferView": 1,
      "byteOffset": 7339600,
      "componentType": 5126,
      "count": 37472,
      "max": [0.9983909726142883, 0.9873045682907104],
      "min": [0.0009765625, 0.0012837840477004647],
      "type": "VEC2"
    },
    {
      "bufferView": 0,
      "byteOffset": 14898960,
      "componentType": 5125,
      "count": 96984,
      "type": "SCALAR"
    }
  ],
  "asset": {
    "extras": {
      "author": "ryanbair (https://sketchfab.com/ryanbair)",
      "license": "CC-BY-4.0 (http://creativecommons.org/licenses/by/4.0/)",
      "source": "https://sketchfab.com/3d-models/yellow-nike-dunk-low-dusty-olive-from-video-clip-93be9098ab9c46329cbeae98f458a912",
      "title": "Yellow Nike Dunk Low Dusty Olive from video clip"
    },
    "generator": "Sketchfab-12.68.0",
    "version": "2.0"
  },
  "bufferViews": [
    {
      "buffer": 0,
      "byteLength": 15286896,
      "name": "floatBufferViews",
      "target": 34963
    },
    {
      "buffer": 0,
      "byteLength": 7639376,
      "byteOffset": 15286896,
      "byteStride": 8,
      "name": "floatBufferViews",
      "target": 34962
    },
    {
      "buffer": 0,
      "byteLength": 22918128,
      "byteOffset": 22926272,
      "byteStride": 12,
      "name": "floatBufferViews",
      "target": 34962
    }
  ],
  "buffers": [
    {
      "byteLength": 45844400,
      "uri": "scene.bin"
    }
  ],
  "extensionsUsed": ["KHR_materials_unlit"],
  "images": [
    {
      "uri": "textures/tex_u1_v1_baseColor.jpeg"
    }
  ],
  "materials": [
    {
      "doubleSided": true,
      "extensions": {
        "KHR_materials_unlit": {}
      },
      "name": "tex_u1_v1",
      "pbrMetallicRoughness": {
        "baseColorTexture": {
          "index": 0
        },
        "metallicFactor": 0.0
      }
    }
  ],
  "meshes": [
    {
      "name": "Object_0",
      "primitives": [
        {
          "attributes": {
            "NORMAL": 1,
            "POSITION": 0,
            "TEXCOORD_0": 2
          },
          "indices": 3,
          "material": 0,
          "mode": 4
        }
      ]
    },
    {
      "name": "Object_1",
      "primitives": [
        {
          "attributes": {
            "NORMAL": 5,
            "POSITION": 4,
            "TEXCOORD_0": 6
          },
          "indices": 7,
          "material": 0,
          "mode": 4
        }
      ]
    },
    {
      "name": "Object_2",
      "primitives": [
        {
          "attributes": {
            "NORMAL": 9,
            "POSITION": 8,
            "TEXCOORD_0": 10
          },
          "indices": 11,
          "material": 0,
          "mode": 4
        }
      ]
    },
    {
      "name": "Object_3",
      "primitives": [
        {
          "attributes": {
            "NORMAL": 13,
            "POSITION": 12,
            "TEXCOORD_0": 14
          },
          "indices": 15,
          "material": 0,
          "mode": 4
        }
      ]
    },
    {
      "name": "Object_4",
      "primitives": [
        {
          "attributes": {
            "NORMAL": 17,
            "POSITION": 16,
            "TEXCOORD_0": 18
          },
          "indices": 19,
          "material": 0,
          "mode": 4
        }
      ]
    },
    {
      "name": "Object_5",
      "primitives": [
        {
          "attributes": {
            "NORMAL": 21,
            "POSITION": 20,
            "TEXCOORD_0": 22
          },
          "indices": 23,
          "material": 0,
          "mode": 4
        }
      ]
    },
    {
      "name": "Object_6",
      "primitives": [
        {
          "attributes": {
            "NORMAL": 25,
            "POSITION": 24,
            "TEXCOORD_0": 26
          },
          "indices": 27,
          "material": 0,
          "mode": 4
        }
      ]
    },
    {
      "name": "Object_7",
      "primitives": [
        {
          "attributes": {
            "NORMAL": 29,
            "POSITION": 28,
            "TEXCOORD_0": 30
          },
          "indices": 31,
          "material": 0,
          "mode": 4
        }
      ]
    },
    {
      "name": "Object_8",
      "primitives": [
        {
          "attributes": {
            "NORMAL": 33,
            "POSITION": 32,
            "TEXCOORD_0": 34
          },
          "indices": 35,
          "material": 0,
          "mode": 4
        }
      ]
    },
    {
      "name": "Object_9",
      "primitives": [
        {
          "attributes": {
            "NORMAL": 37,
            "POSITION": 36,
            "TEXCOORD_0": 38
          },
          "indices": 39,
          "material": 0,
          "mode": 4
        }
      ]
    },
    {
      "name": "Object_10",
      "primitives": [
        {
          "attributes": {
            "NORMAL": 41,
            "POSITION": 40,
            "TEXCOORD_0": 42
          },
          "indices": 43,
          "material": 0,
          "mode": 4
        }
      ]
    },
    {
      "name": "Object_11",
      "primitives": [
        {
          "attributes": {
            "NORMAL": 45,
            "POSITION": 44,
            "TEXCOORD_0": 46
          },
          "indices": 47,
          "material": 0,
          "mode": 4
        }
      ]
    },
    {
      "name": "Object_12",
      "primitives": [
        {
          "attributes": {
            "NORMAL": 49,
            "POSITION": 48,
            "TEXCOORD_0": 50
          },
          "indices": 51,
          "material": 0,
          "mode": 4
        }
      ]
    },
    {
      "name": "Object_13",
      "primitives": [
        {
          "attributes": {
            "NORMAL": 53,
            "POSITION": 52,
            "TEXCOORD_0": 54
          },
          "indices": 55,
          "material": 0,
          "mode": 4
        }
      ]
    },
    {
      "name": "Object_14",
      "primitives": [
        {
          "attributes": {
            "NORMAL": 57,
            "POSITION": 56,
            "TEXCOORD_0": 58
          },
          "indices": 59,
          "material": 0,
          "mode": 4
        }
      ]
    }
  ],
  "nodes": [
    {
      "children": [1],
      "matrix": [
        0.9999958872795105,
        -0.002435952657833695,
        -0.001509504509158433,
        0.0,
        -0.0011673194821923971,
        0.13481694459915183,
        -0.9908698201179504,
        0.0,
        0.00261721876449883,
        0.990867555141449,
        0.13481354713439964,
        0.0,
        -0.06354476511478424,
        2.2494864463806157,
        -2.1990401744842525,
        1.0
      ],
      "name": "Sketchfab_model"
    },
    {
      "children": [2, 3, 4, 5, 6, 7, 8, 9, 10, 11, 12, 13, 14, 15, 16],
      "name": "model.obj.cleaner.materialmerger.gles"
    },
    {
      "mesh": 0,
      "name": "Object_2"
    },
    {
      "mesh": 1,
      "name": "Object_3"
    },
    {
      "mesh": 2,
      "name": "Object_4"
    },
    {
      "mesh": 3,
      "name": "Object_5"
    },
    {
      "mesh": 4,
      "name": "Object_6"
    },
    {
      "mesh": 5,
      "name": "Object_7"
    },
    {
      "mesh": 6,
      "name": "Object_8"
    },
    {
      "mesh": 7,
      "name": "Object_9"
    },
    {
      "mesh": 8,
      "name": "Object_10"
    },
    {
      "mesh": 9,
      "name": "Object_11"
    },
    {
      "mesh": 10,
      "name": "Object_12"
    },
    {
      "mesh": 11,
      "name": "Object_13"
    },
    {
      "mesh": 12,
      "name": "Object_14"
    },
    {
      "mesh": 13,
      "name": "Object_15"
    },
    {
      "mesh": 14,
      "name": "Object_16"
    }
  ],
  "samplers": [
    {
      "magFilter": 9729,
      "minFilter": 9987,
      "wrapS": 10497,
      "wrapT": 10497
    }
  ],
  "scene": 0,
  "scenes": [
    {
      "name": "Sketchfab_Scene",
      "nodes": [0]
    }
  ],
  "textures": [
    {
      "sampler": 0,
      "source": 0
    }
  ]
}
